# xmcd CD database file
#
# Track frame offsets:
#	150
#	4988
#	16890
#	26462
#	41626
#	52767
#	73226
#	87481
#	107632
#	126173
#	155219
#	167872
#	183830
#	203743
#
# Disc length: 2950 seconds
#
# Revision: 0
# Processed by: cddbd v1.4PL0 Copyright (c) Steve Scherf et al.
# Submitted via: CDex 1.40Beta9
#
DISCID=b80b840e
DTITLE=Otis Lee Crenshaw - London, Not Tennessee
DYEAR=2001
DGENRE=Country
TTITLE0=Intro
TTITLE1=Improv/Bank Boy
TTITLE2=Women Call It Stalking
TTITLE3=Drunk
TTITLE4=Tube Stop Song
TTITLE5=Fast Cars and Airplanes
TTITLE6=Fattening Up
TTITLE7=Trailerland
TTITLE8=Conjugal Visit
TTITLE9=Big Dennis
TTITLE10=Ashtray
TTITLE11=Uncle Muncie
TTITLE12=Texas Not Tennessee
TTITLE13=He Almost Looks Like You
EXTD=YEAR: 2001 ID3G: 2
EXTT0=
EXTT1=
EXTT2=
EXTT3=
EXTT4=
EXTT5=
EXTT6=
EXTT7=
EXTT8=
EXTT9=
EXTT10=
EXTT11=
EXTT12=
EXTT13=
PLAYORDER=
